<svg width="27" height="30" viewBox="0 0 27 30" fill="none" xmlns="http://www.w3.org/2000/svg">
<path d="M23.1758 0H3.07422C2.66947 0.00103542 2.26889 0.0817821 1.89535 0.23763C1.52181 0.393477 1.18262 0.621374 0.897152 0.908307C0.611685 1.19524 0.385529 1.53559 0.231598 1.90993C0.0776655 2.28426 -0.00102794 2.68525 1.01379e-05 3.09V23.37C1.01379e-05 25.08 1.38001 26.46 3.07422 26.46H20.0842L19.2869 23.6826L21.2084 25.4684L23.0226 27.1484L26.25 30V3.09C26.251 2.68525 26.1724 2.28426 26.0184 1.90993C25.8645 1.53559 25.6383 1.19524 25.3529 0.908307C25.0674 0.621374 24.7282 0.393477 24.3547 0.23763C23.9811 0.0817821 23.5805 0.00103542 23.1758 0ZM17.3842 19.59C17.3842 19.59 16.8442 18.9458 16.3958 18.3726C18.36 17.8168 19.11 16.5884 19.11 16.5884C18.4942 16.9926 17.91 17.28 17.3842 17.4758C15.47 18.2769 13.3621 18.4955 11.3242 18.1042C10.5712 17.9563 9.8334 17.7396 9.12001 17.4568C8.74377 17.3139 8.37812 17.1446 8.0258 16.95C7.98001 16.9168 7.9358 16.9042 7.89159 16.8742C7.86794 16.863 7.84695 16.8468 7.83001 16.8268C7.56001 16.6784 7.41001 16.5742 7.41001 16.5742C7.41001 16.5742 8.13001 17.7742 10.0358 18.3442C9.5858 18.9126 9.03001 19.59 9.03001 19.59C5.7158 19.4842 4.45738 17.31 4.45738 17.31C4.45738 12.48 6.61738 8.56579 6.61738 8.56579C8.77738 6.94421 10.8316 6.99 10.8316 6.99L10.9816 7.17C8.28159 7.95158 7.0358 9.13579 7.0358 9.13579C7.0358 9.13579 7.36738 8.95579 7.92159 8.70158C9.5258 7.99737 10.8 7.80158 11.3258 7.75579C11.4158 7.74158 11.4916 7.72579 11.5816 7.72579C14.1824 7.37529 16.8271 7.86957 19.1258 9.13579C19.1258 9.13579 17.94 8.01158 15.39 7.23158L15.6 6.99158C15.6 6.99158 17.6558 6.94579 19.8142 8.56737C19.8142 8.56737 21.9742 12.4816 21.9742 17.3116C21.9742 17.3116 20.7 19.4842 17.3842 19.59Z" fill="white"/>
</svg>
