<svg width="26" height="30" viewBox="0 0 26 30" fill="none" xmlns="http://www.w3.org/2000/svg">
<path d="M24.0482 5.57454C23.9356 5.42059 23.8152 5.27279 23.6877 5.13174C23.816 4.77956 23.9134 4.41625 23.9789 4.04617C24.172 2.69233 24.0043 1.30987 23.4935 0.046678C23.4935 0.046678 21.9404 -0.453258 18.3766 2.01786C16.8636 1.58754 15.3008 1.37129 13.7311 1.37508C12.157 1.37224 10.5897 1.58845 9.07182 2.01786C5.50799 -0.481826 3.95489 0.046678 3.95489 0.046678C3.45024 1.2965 3.28255 2.66348 3.46954 4.00332C3.53534 4.38879 3.63752 4.76672 3.77461 5.13174C3.64981 5.27458 3.52501 5.43171 3.41407 5.57454C2.37929 6.91155 1.83 8.57865 1.86097 10.2882C1.85767 10.6937 1.87619 11.099 1.91643 11.5024C2.36018 17.8301 6.45095 19.3014 10.3476 19.7585C9.79606 20.2867 9.42209 20.9821 9.27982 21.7439C9.15093 22.252 9.09028 22.7758 9.09955 23.3009V25.172C7.54783 25.3149 5.9559 25.0821 5.46223 23.6565C4.9323 22.2921 4.05344 21.101 2.91902 20.2098C2.83611 20.1636 2.75723 20.1101 2.68328 20.0498C2.58366 19.7802 2.40717 19.5479 2.177 19.3834C1.94683 19.219 1.67375 19.1301 1.39365 19.1285H1.38671C1.02014 19.1285 0.668469 19.278 0.40861 19.5444C0.148752 19.8107 0.00184437 20.1722 1.14821e-05 20.5498C-0.00414862 21.7096 1.12324 22.4595 1.58501 22.7138C2.12451 23.2738 2.5585 23.932 2.86494 24.655C3.3697 26.1162 4.84653 28.3374 9.05795 28.0488L9.06072 28.1888L9.06627 28.5716C9.06627 28.9504 9.21237 29.3138 9.47243 29.5816C9.73248 29.8495 10.0852 30 10.453 30H16.9899C17.3577 30 17.7104 29.8495 17.9704 29.5816C18.2305 29.3138 18.3766 28.9504 18.3766 28.5716C18.3766 28.5716 18.3877 24.0579 18.3877 23.3009C18.3969 22.7758 18.3363 22.252 18.2074 21.7439L18.2046 21.7353L18.2102 21.7439C18.1977 21.6939 18.1797 21.6539 18.1658 21.6054C18.0113 20.8977 17.6538 20.2542 17.1396 19.7585L17.1563 19.7884L17.1286 19.7599C21.0252 19.3028 25.0882 17.803 25.532 11.5038C25.5722 11.1004 25.5907 10.6951 25.5874 10.2897C25.612 8.58346 25.0688 6.92001 24.0482 5.57597V5.57454Z" fill="white"/>
</svg>
