<svg width="35" height="30" viewBox="0 0 35 30" fill="none" xmlns="http://www.w3.org/2000/svg">
<path d="M35 3.55855C33.7129 4.1599 32.3302 4.56621 30.8766 4.74987C32.3765 3.80363 33.4985 2.31435 34.0335 0.559934C32.6244 1.44244 31.0822 2.06362 29.4739 2.39648C28.3924 1.17894 26.9599 0.371933 25.3989 0.100754C23.8378 -0.170425 22.2355 0.109396 20.8407 0.896774C19.4459 1.68415 18.3367 2.93503 17.6852 4.45521C17.0338 5.97539 16.8765 7.67981 17.238 9.30386C14.3827 9.1527 11.5895 8.37023 9.03967 7.00721C6.48981 5.64419 4.24026 3.73109 2.43702 1.39207C1.82044 2.5135 1.46591 3.81371 1.46591 5.19844C1.46522 6.44501 1.75637 7.67249 2.31352 8.77196C2.87067 9.87144 3.67659 10.8089 4.65978 11.5012C3.51954 11.463 2.40446 11.1381 1.40734 10.5537V10.6512C1.40722 12.3996 1.9808 14.0941 3.03076 15.4474C4.08071 16.8006 5.54237 17.7291 7.16771 18.0754C6.10995 18.3773 5.00096 18.4217 3.92451 18.2054C4.38309 19.7098 5.27635 21.0253 6.47925 21.9678C7.68215 22.9103 9.13446 23.4326 10.6329 23.4615C8.08924 25.5669 4.94786 26.709 1.71408 26.7039C1.14126 26.7041 0.56891 26.6688 0 26.5983C3.28247 28.8236 7.10349 30.0046 11.0059 30C24.2161 30 31.4377 18.4639 31.4377 8.45872C31.4377 8.13367 31.43 7.80537 31.4161 7.48031C32.8209 6.40922 34.0334 5.08288 34.9969 3.56342L35 3.55855V3.55855Z" fill="white"/>
</svg>
